<?xml version="1.0" encoding="UTF-8"?>
<svg width="512px" height="359px" viewBox="0 0 512 359" xmlns="http://www.w3.org/2000/svg" xmlns:xlink="http://www.w3.org/1999/xlink" version="1.1">
 <!-- Generated by Pixelmator Pro 2.1.3 -->
 <g id="New-Group-copy">
  <path id="Path" d="M256 358.484 C256 358.484 96.156 358.484 55.672 347.52 33.738 341.613 16.449 324.32 10.543 302.391 0 262.746 0 179.242 0 179.242 0 179.242 0 96.156 10.543 56.094 16.445 34.164 34.16 16.449 55.668 10.547 95.734 0 255.996 0 255.996 0 255.996 0 416.262 0 456.328 10.965 478.258 16.871 495.551 34.16 501.453 56.094 512.422 96.156 512 179.664 512 179.664 512 179.664 512 262.746 501.457 302.813 495.551 324.742 478.262 342.035 456.328 347.938 416.262 358.484 256 358.484 256 358.484 Z M184.412 301.734 C217.771 301.816 262.001 293.437 302.449 258.496 337.689 228.054 332.677 201.366 350.135 186.285 368.203 170.677 394.436 179.035 394.436 179.035 383.018 144.505 331.713 138.127 331.713 138.127 331.713 138.127 303.155 44.526 157.543 62.682 157.543 62.682 235.701 76.713 261.266 145.65 261.266 145.65 152.616 157.057 89.23 152.678 89.23 152.678 183.993 176.081 209.898 175.182 209.898 175.182 173.21 184.295 71.715 185.953 71.715 185.953 214.278 214.19 261.836 204.727 261.836 204.727 241.467 278.754 131.33 294.115 131.33 294.115 153.075 301.658 184.412 301.734 Z" fill="#ff0000" fill-opacity="1" stroke="none"/>
 </g>
</svg>
