<?xml version="1.0" encoding="UTF-8"?>
<svg width="512px" height="359px" viewBox="0 0 512 359" xmlns="http://www.w3.org/2000/svg" xmlns:xlink="http://www.w3.org/1999/xlink" version="1.1">
 <!-- Generated by Pixelmator Pro 2.1.3 -->
 <g id="New-Group">
  <path id="Path" d="M501.453 56.094 C495.551 34.16 478.258 16.871 456.328 10.965 416.262 0 255.996 0 255.996 0 255.996 0 95.734 0 55.668 10.547 34.16 16.449 16.445 34.164 10.543 56.094 0 96.156 0 179.242 0 179.242 0 179.242 0 262.746 10.543 302.391 16.449 324.32 33.738 341.613 55.672 347.52 96.156 358.484 256 358.484 256 358.484 256 358.484 416.262 358.484 456.328 347.938 478.262 342.035 495.551 324.742 501.457 302.813 512 262.746 512 179.664 512 179.664 512 179.664 512.422 96.156 501.453 56.094 Z M501.453 56.094" fill="#ff0000" fill-opacity="1" stroke="none"/>
  <path id="Path-copy" d="M157.542 62.682 C303.155 44.526 331.713 138.126 331.713 138.126 331.713 138.126 383.017 144.504 394.435 179.035 394.435 179.035 368.203 170.676 350.134 186.285 332.677 201.365 337.688 228.055 302.449 258.497 224.005 326.26 131.331 294.116 131.331 294.116 241.469 278.755 261.836 204.726 261.836 204.726 214.278 214.19 71.715 185.953 71.715 185.953 173.21 184.294 209.898 175.182 209.898 175.182 183.993 176.081 89.231 152.678 89.231 152.678 152.617 157.057 261.267 145.65 261.267 145.65 235.702 76.712 157.542 62.682 157.542 62.682 Z" fill="#ffffff" fill-opacity="1" stroke="none"/>
 </g>
</svg>
